<?xml version="1.0" encoding="UTF-8" standalone="no"?>
<svg
   xmlns:dc="http://purl.org/dc/elements/1.1/"
   xmlns:cc="http://creativecommons.org/ns#"
   xmlns:rdf="http://www.w3.org/1999/02/22-rdf-syntax-ns#"
   xmlns:svg="http://www.w3.org/2000/svg"
   xmlns="http://www.w3.org/2000/svg"
   viewBox="0 0 1000 666.66669"
   height="666.66669"
   width="1000"
   xml:space="preserve"
   id="svg2"
   version="1.1"><metadata
     id="metadata8"><rdf:RDF><cc:Work
         rdf:about=""><dc:format>image/svg+xml</dc:format><dc:type
           rdf:resource="http://purl.org/dc/dcmitype/StillImage" /></cc:Work></rdf:RDF></metadata><defs
     id="defs6" /><g
     transform="matrix(1.3333333,0,0,-1.3333333,0,666.66667)"
     id="g10"><g
       transform="scale(0.1)"
       id="g12"><path
         id="path14"
         style="fill:#abe2d4;fill-opacity:1;fill-rule:nonzero;stroke:none"
         d="m 2492.43,4990.8 262.22,-262.22 c 181.82,-181.82 476.62,-181.81 658.42,0.03 l 150.21,150.22 c 31.71,31.71 83.1,31.72 114.81,0.01 l 1.49,-1.48 c 32.96,-32.97 33.01,-85.91 0.33,-118.59 -50.35,-50.33 -398.39,-398.36 -476.69,-476.66 -165.84,-165.82 -165.85,-434.71 -0.01,-600.54 v 0 c 165.83,-165.84 434.71,-165.84 600.54,0 l 1454.82,1454.82 320.32,-43.64 -529.6,-529.61 c -231.16,-231.16 -231.16,-605.95 0,-837.12 v 0 c 231.17,-231.17 605.96,-231.17 837.12,0 l 809.83,809.82 c 35.18,35.18 92.21,35.18 127.39,0 v 0 c 35.17,-35.17 35.17,-92.21 0,-127.38 L 5624.36,3209.18 c -130.66,-130.65 -130.66,-342.49 0,-473.15 v 0 c 130.66,-130.66 342.49,-130.66 473.16,0 l 830.75,830.76 c 37.69,37.69 98.8,37.69 136.48,0 v 0 c 37.7,-37.69 37.7,-98.8 0,-136.49 l -14.54,-14.55 c -275.9,-275.9 -275.9,-723.22 0,-999.11 L 7669.85,1797 v 3593.84" /><path
         id="path16"
         style="fill:#fbc837;fill-opacity:1;fill-rule:nonzero;stroke:none"
         d="m 1894.22,4997.92 c 0,-358.61 -290.71,-649.32 -649.31,-649.32 -358.613,0 -649.328,290.71 -649.328,649.32 0,358.61 290.715,649.31 649.328,649.31 358.6,0 649.31,-290.7 649.31,-649.31" /><path
         id="path18"
         style="fill:#fbc837;fill-opacity:1;fill-rule:nonzero;stroke:none"
         d="M 6984.46,-1.48828 C 6984.46,-226.5 6802.05,-408.93 6577.03,-408.93 c -225.02,0 -407.43,182.43 -407.43,407.44172 0,225.01928 182.41,407.42928 407.43,407.42928 225.02,0 407.43,-182.41 407.43,-407.42928" /><path
         id="path20"
         style="fill:#abe2d4;fill-opacity:1;fill-rule:nonzero;stroke:none"
         d="m 2321.63,3891.64 c -165.53,0 -299.66,134.13 -299.66,299.58 0,165.46 134.13,299.58 299.66,299.58 165.45,0 299.58,-134.12 299.58,-299.58 0,-165.45 -134.13,-299.58 -299.58,-299.58 z m 0,672.7 c -205.76,0 -373.2,-167.37 -373.2,-373.12 0,-205.75 167.44,-373.19 373.2,-373.19 205.75,0 373.11,167.44 373.11,373.19 0,205.75 -167.36,373.12 -373.11,373.12" /><path
         id="path22"
         style="fill:#fbc837;fill-opacity:1;fill-rule:nonzero;stroke:none"
         d="m 7105.25,2054.67 c 0,-97 -78.63,-175.64 -175.63,-175.64 -97.01,0 -175.64,78.64 -175.64,175.64 0,97 78.63,175.63 175.64,175.63 97,0 175.63,-78.63 175.63,-175.63" /><path
         id="path24"
         style="fill:#fbc837;fill-opacity:1;fill-rule:nonzero;stroke:none"
         d="m 2246.56,1670.38 c 0,-46.49 -37.69,-84.18 -84.18,-84.18 -46.5,0 -84.18,37.69 -84.18,84.18 0,46.49 37.68,84.19 84.18,84.19 46.49,0 84.18,-37.7 84.18,-84.19" /><path
         id="path26"
         style="fill:#fbc837;fill-opacity:1;fill-rule:nonzero;stroke:none"
         d="m 2426.79,1850.62 c 0,-46.49 -37.68,-84.18 -84.18,-84.18 -46.49,0 -84.18,37.69 -84.18,84.18 0,46.49 37.69,84.18 84.18,84.18 46.5,0 84.18,-37.69 84.18,-84.18" /><path
         id="path28"
         style="fill:#fbc837;fill-opacity:1;fill-rule:nonzero;stroke:none"
         d="m 212.496,2975.5 c 0,-97 -78.633,-175.64 -175.6366,-175.64 -97,0 -175.6324,78.64 -175.6324,175.64 0,97 78.6324,175.63 175.6324,175.63 97.0036,0 175.6366,-78.63 175.6366,-175.63" /><path
         id="path30"
         style="fill:#c6ebdd;fill-opacity:1;fill-rule:nonzero;stroke:none"
         d="m -141.898,1857.84 819.699,819.7 c 183.765,183.77 481.719,183.77 665.499,0 v 0 c 183.77,-183.77 183.77,-481.72 0,-665.49 L 969.969,1638.72 c -80.688,-80.68 -80.688,-211.49 0,-292.17 v 0 c 80.681,-80.68 211.481,-80.68 292.161,0 l 81.17,81.16 c 165.84,165.84 434.72,165.84 600.56,0 v 0 c 165.84,-165.84 165.84,-434.73 0,-600.569 l -332.75,-332.75 c -35.85,-35.852 -35.85,-93.993 0,-129.852 v 0 c 35.86,-35.859 94,-35.859 129.85,0 l 811.58,811.581 c 143.44,143.43 375.99,143.43 519.42,0 v 0 c 143.43,-143.43 143.43,-375.979 0,-519.409 L 2852.83,437.582 c -31.38,-31.383 -31.38,-82.25 0,-113.621 v 0 c 31.38,-31.371 82.24,-31.371 113.62,0 l 18.17,18.168 c 384.4,384.402 1007.64,384.402 1392.05,0 L 4751.93,-33.1289 H -1326.8 c 0,0 1257.9484,1817.9289 1184.902,1890.9689" /><path
         id="path32"
         style="fill:#29316c;fill-opacity:1;fill-rule:nonzero;stroke:none"
         d="m 5850.55,905.148 v 0 c 17.59,17.582 46.12,17.582 63.7,0 L 6049.9,769.5 c 17.6,-17.59 17.6,-46.109 0,-63.711 v 0 c -17.59,-17.59 -46.11,-17.59 -63.71,0 l -135.64,135.652 c -17.59,17.579 -17.59,46.11 0,63.707" /><path
         id="path34"
         style="fill:#29316c;fill-opacity:1;fill-rule:nonzero;stroke:none"
         d="m 6049.9,905.148 v 0 c 17.6,-17.597 17.6,-46.128 0,-63.707 L 5914.25,705.789 c -17.58,-17.59 -46.11,-17.59 -63.7,0 v 0 c -17.59,17.602 -17.59,46.121 0,63.711 l 135.64,135.648 c 17.6,17.582 46.12,17.582 63.71,0" /><path
         id="path36"
         style="fill:#29316c;fill-opacity:1;fill-rule:nonzero;stroke:none"
         d="m 2070.17,3058.09 v 0 c 11.45,11.45 30,11.45 41.44,0 l 88.23,-88.22 c 11.44,-11.45 11.44,-30 0,-41.44 v 0 c -11.45,-11.44 -30,-11.44 -41.45,0 l -88.22,88.23 c -11.44,11.44 -11.44,29.99 0,41.43" /><path
         id="path38"
         style="fill:#29316c;fill-opacity:1;fill-rule:nonzero;stroke:none"
         d="m 2199.84,3058.09 v 0 c 11.44,-11.44 11.44,-29.99 0,-41.43 l -88.23,-88.23 c -11.44,-11.44 -29.99,-11.44 -41.44,0 v 0 c -11.44,11.44 -11.44,29.99 0,41.44 l 88.22,88.22 c 11.45,11.45 30,11.45 41.45,0" /><path
         id="path40"
         style="fill:#29316c;fill-opacity:1;fill-rule:nonzero;stroke:none"
         d="m 4194.37,3879.54 c 0,-105.39 -85.44,-190.83 -190.84,-190.83 -105.39,0 -190.83,85.44 -190.83,190.83 0,105.4 85.44,190.84 190.83,190.84 105.4,0 190.84,-85.44 190.84,-190.84" /><path
         id="path42"
         style="fill:#29316c;fill-opacity:1;fill-rule:nonzero;stroke:none"
         d="m 657.508,3960.74 c 0,-58.49 -47.422,-105.92 -105.91,-105.92 -58.496,0 -105.918,47.43 -105.918,105.92 0,58.49 47.422,105.92 105.918,105.92 58.488,0 105.91,-47.43 105.91,-105.92" /><path
         id="path44"
         style="fill:#29316c;fill-opacity:1;fill-rule:nonzero;stroke:none"
         d="m 4982.79,3343.59 c 0,-17.43 -14.12,-31.56 -31.55,-31.56 -17.44,0 -31.57,14.13 -31.57,31.56 0,17.43 14.13,31.56 31.57,31.56 17.43,0 31.55,-14.13 31.55,-31.56" /><path
         id="path46"
         style="fill:#29316c;fill-opacity:1;fill-rule:nonzero;stroke:none"
         d="m 4982.79,3178.7 c 0,-17.43 -14.12,-31.56 -31.55,-31.56 -17.44,0 -31.57,14.13 -31.57,31.56 0,17.43 14.13,31.56 31.57,31.56 17.43,0 31.55,-14.13 31.55,-31.56" /><path
         id="path48"
         style="fill:#29316c;fill-opacity:1;fill-rule:nonzero;stroke:none"
         d="m 5143.39,3343.59 c 0,-17.43 -14.14,-31.56 -31.57,-31.56 -17.43,0 -31.56,14.13 -31.56,31.56 0,17.43 14.13,31.56 31.56,31.56 17.43,0 31.57,-14.13 31.57,-31.56" /><path
         id="path50"
         style="fill:#29316c;fill-opacity:1;fill-rule:nonzero;stroke:none"
         d="m 5143.39,3178.7 c 0,-17.43 -14.14,-31.56 -31.57,-31.56 -17.43,0 -31.56,14.13 -31.56,31.56 0,17.43 14.13,31.56 31.56,31.56 17.43,0 31.57,-14.13 31.57,-31.56" /><path
         id="path52"
         style="fill:#29316c;fill-opacity:1;fill-rule:nonzero;stroke:none"
         d="m 488.348,3641.29 c 0,-17.42 -14.133,-31.55 -31.555,-31.55 -17.434,0 -31.563,14.13 -31.563,31.55 0,17.44 14.129,31.57 31.563,31.57 17.422,0 31.555,-14.13 31.555,-31.57" /><path
         id="path54"
         style="fill:#29316c;fill-opacity:1;fill-rule:nonzero;stroke:none"
         d="m 488.348,3476.41 c 0,-17.43 -14.133,-31.56 -31.555,-31.56 -17.434,0 -31.563,14.13 -31.563,31.56 0,17.43 14.129,31.56 31.563,31.56 17.422,0 31.555,-14.13 31.555,-31.56" /><path
         id="path56"
         style="fill:#29316c;fill-opacity:1;fill-rule:nonzero;stroke:none"
         d="m 648.934,3641.29 c 0,-17.42 -14.125,-31.55 -31.555,-31.55 -17.434,0 -31.563,14.13 -31.563,31.55 0,17.44 14.129,31.57 31.563,31.57 17.43,0 31.555,-14.13 31.555,-31.57" /><path
         id="path58"
         style="fill:#29316c;fill-opacity:1;fill-rule:nonzero;stroke:none"
         d="m 648.934,3476.41 c 0,-17.43 -14.125,-31.56 -31.555,-31.56 -17.434,0 -31.563,14.13 -31.563,31.56 0,17.43 14.129,31.56 31.563,31.56 17.43,0 31.555,-14.13 31.555,-31.56" /><path
         id="path60"
         style="fill:#29316c;fill-opacity:1;fill-rule:nonzero;stroke:none"
         d="m 163.285,3641.29 c 0,-17.42 -14.129,-31.55 -31.558,-31.55 -17.434,0 -31.555,14.13 -31.555,31.55 0,17.44 14.121,31.57 31.555,31.57 17.429,0 31.558,-14.13 31.558,-31.57" /><path
         id="path62"
         style="fill:#29316c;fill-opacity:1;fill-rule:nonzero;stroke:none"
         d="m 163.285,3476.41 c 0,-17.43 -14.129,-31.56 -31.558,-31.56 -17.434,0 -31.555,14.13 -31.555,31.56 0,17.43 14.121,31.56 31.555,31.56 17.429,0 31.558,-14.13 31.558,-31.56" /><path
         id="path64"
         style="fill:#29316c;fill-opacity:1;fill-rule:nonzero;stroke:none"
         d="m 323.871,3641.29 c 0,-17.42 -14.129,-31.55 -31.558,-31.55 -17.422,0 -31.555,14.13 -31.555,31.55 0,17.44 14.133,31.57 31.555,31.57 17.429,0 31.558,-14.13 31.558,-31.57" /><path
         id="path66"
         style="fill:#29316c;fill-opacity:1;fill-rule:nonzero;stroke:none"
         d="m 323.871,3476.41 c 0,-17.43 -14.129,-31.56 -31.558,-31.56 -17.422,0 -31.555,14.13 -31.555,31.56 0,17.43 14.133,31.56 31.555,31.56 17.429,0 31.558,-14.13 31.558,-31.56" /><path
         id="path68"
         style="fill:#29316c;fill-opacity:1;fill-rule:nonzero;stroke:none"
         d="m 6595.18,889.301 c 0,-17.43 -14.12,-31.571 -31.55,-31.571 -17.43,0 -31.56,14.141 -31.56,31.571 0,17.429 14.13,31.558 31.56,31.558 17.43,0 31.55,-14.129 31.55,-31.558" /><path
         id="path70"
         style="fill:#29316c;fill-opacity:1;fill-rule:nonzero;stroke:none"
         d="m 6595.18,724.41 c 0,-17.43 -14.12,-31.558 -31.55,-31.558 -17.43,0 -31.56,14.128 -31.56,31.558 0,17.442 14.13,31.559 31.56,31.559 17.43,0 31.55,-14.117 31.55,-31.559" /><path
         id="path72"
         style="fill:#29316c;fill-opacity:1;fill-rule:nonzero;stroke:none"
         d="m 6755.78,889.301 c 0,-17.43 -14.13,-31.571 -31.56,-31.571 -17.44,0 -31.57,14.141 -31.57,31.571 0,17.429 14.13,31.558 31.57,31.558 17.43,0 31.56,-14.129 31.56,-31.558" /><path
         id="path74"
         style="fill:#29316c;fill-opacity:1;fill-rule:nonzero;stroke:none"
         d="m 6755.78,724.41 c 0,-17.43 -14.13,-31.558 -31.56,-31.558 -17.44,0 -31.57,14.128 -31.57,31.558 0,17.442 14.13,31.559 31.57,31.559 17.43,0 31.56,-14.117 31.56,-31.559" /><path
         id="path76"
         style="fill:#29316c;fill-opacity:1;fill-rule:nonzero;stroke:none"
         d="m 6270.12,889.301 c 0,-17.43 -14.13,-31.571 -31.56,-31.571 -17.43,0 -31.55,14.141 -31.55,31.571 0,17.429 14.12,31.558 31.55,31.558 17.43,0 31.56,-14.129 31.56,-31.558" /><path
         id="path78"
         style="fill:#29316c;fill-opacity:1;fill-rule:nonzero;stroke:none"
         d="m 6270.12,724.41 c 0,-17.43 -14.13,-31.558 -31.56,-31.558 -17.43,0 -31.55,14.128 -31.55,31.558 0,17.442 14.12,31.559 31.55,31.559 17.43,0 31.56,-14.117 31.56,-31.559" /><path
         id="path80"
         style="fill:#29316c;fill-opacity:1;fill-rule:nonzero;stroke:none"
         d="m 6430.71,889.301 c 0,-17.43 -14.13,-31.571 -31.56,-31.571 -17.43,0 -31.56,14.141 -31.56,31.571 0,17.429 14.13,31.558 31.56,31.558 17.43,0 31.56,-14.129 31.56,-31.558" /><path
         id="path82"
         style="fill:#29316c;fill-opacity:1;fill-rule:nonzero;stroke:none"
         d="m 6430.71,724.41 c 0,-17.43 -14.13,-31.558 -31.56,-31.558 -17.43,0 -31.56,14.128 -31.56,31.558 0,17.442 14.13,31.559 31.56,31.559 17.43,0 31.56,-14.117 31.56,-31.559" /><path
         id="path84"
         style="fill:#29316c;fill-opacity:1;fill-rule:nonzero;stroke:none"
         d="m 7244.7,889.301 c 0,-17.43 -14.13,-31.571 -31.56,-31.571 -17.43,0 -31.56,14.141 -31.56,31.571 0,17.429 14.13,31.558 31.56,31.558 17.43,0 31.56,-14.129 31.56,-31.558" /><path
         id="path86"
         style="fill:#29316c;fill-opacity:1;fill-rule:nonzero;stroke:none"
         d="m 7244.7,724.41 c 0,-17.43 -14.13,-31.558 -31.56,-31.558 -17.43,0 -31.56,14.128 -31.56,31.558 0,17.442 14.13,31.559 31.56,31.559 17.43,0 31.56,-14.117 31.56,-31.559" /><path
         id="path88"
         style="fill:#29316c;fill-opacity:1;fill-rule:nonzero;stroke:none"
         d="m 7405.29,889.301 c 0,-17.43 -14.13,-31.571 -31.56,-31.571 -17.43,0 -31.57,14.141 -31.57,31.571 0,17.429 14.14,31.558 31.57,31.558 17.43,0 31.56,-14.129 31.56,-31.558" /><path
         id="path90"
         style="fill:#29316c;fill-opacity:1;fill-rule:nonzero;stroke:none"
         d="m 7405.29,724.41 c 0,-17.43 -14.13,-31.558 -31.56,-31.558 -17.43,0 -31.57,14.128 -31.57,31.558 0,17.442 14.14,31.559 31.57,31.559 17.43,0 31.56,-14.117 31.56,-31.559" /><path
         id="path92"
         style="fill:#29316c;fill-opacity:1;fill-rule:nonzero;stroke:none"
         d="m 6919.64,889.301 c 0,-17.43 -14.14,-31.571 -31.57,-31.571 -17.42,0 -31.55,14.141 -31.55,31.571 0,17.429 14.13,31.558 31.55,31.558 17.43,0 31.57,-14.129 31.57,-31.558" /><path
         id="path94"
         style="fill:#29316c;fill-opacity:1;fill-rule:nonzero;stroke:none"
         d="m 6919.64,724.41 c 0,-17.43 -14.14,-31.558 -31.57,-31.558 -17.42,0 -31.55,14.128 -31.55,31.558 0,17.442 14.13,31.559 31.55,31.559 17.43,0 31.57,-14.117 31.57,-31.559" /><path
         id="path96"
         style="fill:#29316c;fill-opacity:1;fill-rule:nonzero;stroke:none"
         d="m 7080.22,889.301 c 0,-17.43 -14.13,-31.571 -31.56,-31.571 -17.42,0 -31.55,14.141 -31.55,31.571 0,17.429 14.13,31.558 31.55,31.558 17.43,0 31.56,-14.129 31.56,-31.558" /><path
         id="path98"
         style="fill:#29316c;fill-opacity:1;fill-rule:nonzero;stroke:none"
         d="m 7080.22,724.41 c 0,-17.43 -14.13,-31.558 -31.56,-31.558 -17.42,0 -31.55,14.128 -31.55,31.558 0,17.442 14.13,31.559 31.55,31.559 17.43,0 31.56,-14.117 31.56,-31.559" /><path
         id="path100"
         style="fill:#29316c;fill-opacity:1;fill-rule:nonzero;stroke:none"
         d="m 2402.79,955.781 c 0,-43.051 -34.9,-77.941 -77.95,-77.941 -43.05,0 -77.94,34.89 -77.94,77.941 0,43.051 34.89,77.949 77.94,77.949 43.05,0 77.95,-34.898 77.95,-77.949" /><path
         id="path102"
         style="fill:#29316c;fill-opacity:1;fill-rule:nonzero;stroke:none"
         d="m 6602.25,3156.26 c 0,-43.05 -34.89,-77.94 -77.94,-77.94 -43.04,0 -77.94,34.89 -77.94,77.94 0,43.05 34.9,77.94 77.94,77.94 43.05,0 77.94,-34.89 77.94,-77.94" /><path
         id="path104"
         style="fill:none;stroke:#ffffff;stroke-width:30;stroke-linecap:round;stroke-linejoin:miter;stroke-miterlimit:10;stroke-dasharray:none;stroke-opacity:1"
         d="M 6459.01,3643.75 7730.83,4915.57" /><path
         id="path106"
         style="fill:none;stroke:#ffffff;stroke-width:30;stroke-linecap:round;stroke-linejoin:miter;stroke-miterlimit:10;stroke-dasharray:none;stroke-opacity:1"
         d="m 4186.3,4423.75 665.93,665.93" /><path
         id="path108"
         style="fill:none;stroke:#ffffff;stroke-width:30;stroke-linecap:round;stroke-linejoin:miter;stroke-miterlimit:10;stroke-dasharray:none;stroke-opacity:1"
         d="M -134.738,829.582 1157.84,2122.16" /><path
         id="path110"
         style="fill:none;stroke:#ffffff;stroke-width:30;stroke-linecap:round;stroke-linejoin:miter;stroke-miterlimit:10;stroke-dasharray:none;stroke-opacity:1"
         d="M 1270.55,-754.531 2429.11,404.012" /><path
         id="path112"
         style="fill:none;stroke:#ffffff;stroke-width:30;stroke-linecap:round;stroke-linejoin:miter;stroke-miterlimit:10;stroke-dasharray:none;stroke-opacity:1"
         d="M -769.508,560.859 389.039,1719.4" /><path
         id="path114"
         style="fill:#c6ebdd;fill-opacity:1;fill-rule:nonzero;stroke:none"
         d="m 1793.44,2997.84 c 0,-86.97 -70.5,-157.48 -157.48,-157.48 -86.97,0 -157.47,70.51 -157.47,157.48 0,86.97 70.5,157.48 157.47,157.48 86.98,0 157.48,-70.51 157.48,-157.48" /><path
         id="path116"
         style="fill:#abe2d4;fill-opacity:1;fill-rule:nonzero;stroke:none"
         d="m 4644.15,3798.12 c 0,-45.98 -37.27,-83.24 -83.25,-83.24 -45.96,0 -83.24,37.26 -83.24,83.24 0,45.97 37.28,83.24 83.24,83.24 45.98,0 83.25,-37.27 83.25,-83.24" /><path
         id="path118"
         style="fill:#fbf6eb;fill-opacity:1;fill-rule:nonzero;stroke:none"
         d="m 7290.96,3747.89 c 0,-45.98 -37.26,-83.25 -83.24,-83.25 -45.97,0 -83.23,37.27 -83.23,83.25 0,45.97 37.26,83.23 83.23,83.23 45.98,0 83.24,-37.26 83.24,-83.23" /><path
         id="path120"
         style="fill:#ffffff;fill-opacity:1;fill-rule:nonzero;stroke:none"
         d="m 941.871,1079.29 c 0,-112.97 -91.57,-204.548 -204.543,-204.548 -112.969,0 -204.539,91.578 -204.539,204.548 0,112.97 91.57,204.54 204.539,204.54 112.973,0 204.543,-91.57 204.543,-204.54" /><path
         id="path122"
         style="fill:#abe2d4;fill-opacity:1;fill-rule:nonzero;stroke:none"
         d="m 4824.16,-564.121 c -310.35,0 -561.83,251.473 -561.83,561.69131 0,310.21069 251.48,561.69169 561.83,561.69169 310.21,0 561.69,-251.481 561.69,-561.69169 0,-310.21831 -251.48,-561.69131 -561.69,-561.69131 z m 0,1261.25 c -385.77,0 -699.7,-313.797 -699.7,-699.55869 0,-385.76931 313.93,-699.69931 699.7,-699.69931 385.77,0 699.57,313.93 699.57,699.69931 0,385.76169 -313.8,699.55869 -699.57,699.55869" /><path
         id="path124"
         style="fill:#abe2d4;fill-opacity:1;fill-rule:nonzero;stroke:none"
         d="m 303.98,-73.4805 c 14.153,4.7188 548.665,545.0505 753.14,752.0895 43.28,43.832 113.91,44 157.47,0.442 v 0 c 43.37,-43.371 43.37,-113.68 0,-157.039 L 1046.56,353.969 c -21.76,-21.739 -21.76,-57.02 0,-78.77 v 0 c 21.75,-21.75 57.02,-21.75 78.78,0 l 70.03,70.02 c 47.53,47.543 124.61,47.543 172.15,0 v 0 c 47.52,-47.528 47.52,-124.598 0,-172.137 v 0 c -20.15,-20.152 -20.15,-52.812 0,-72.953 L 1564.46,-96.8203 H 286.48" /><path
         id="path126"
         style="fill:#c6ebdd;fill-opacity:1;fill-rule:nonzero;stroke:none"
         d="m 6309.11,5092.04 -608.96,-608.95 c -56.51,-56.52 -56.51,-148.15 0,-204.66 v 0 c 56.52,-56.52 148.15,-56.52 204.66,0 l 325.45,325.44 c 19.45,19.45 51,19.45 70.46,0 v 0 c 19.45,-19.46 19.45,-51 0,-70.46 L 6190,4422.7 c -30.58,-30.58 -30.58,-80.15 0,-110.72 v 0 c 30.57,-30.58 80.14,-30.58 110.72,0 l 298.39,298.39 c 66.91,66.92 167.52,79.61 247.21,38.07 18.65,-9.72 36.16,-22.41 51.81,-38.07 l 8.18,-8.18 580.43,580.44 c 0,0 -1177.63,-83.88 -1177.63,-90.59" /><path
         id="path128"
         style="fill:none;stroke:#29316c;stroke-width:30;stroke-linecap:round;stroke-linejoin:miter;stroke-miterlimit:10;stroke-dasharray:none;stroke-opacity:1"
         d="M 2992.43,-156 4439.21,1290.79" /><path
         id="path130"
         style="fill:none;stroke:#29316c;stroke-width:30;stroke-linecap:round;stroke-linejoin:miter;stroke-miterlimit:10;stroke-dasharray:none;stroke-opacity:1"
         d="M -920.941,-940.859 525.848,505.93" /><path
         id="path132"
         style="fill:none;stroke:#29316c;stroke-width:30;stroke-linecap:round;stroke-linejoin:miter;stroke-miterlimit:10;stroke-dasharray:none;stroke-opacity:1"
         d="M 4650.09,5404.44 3478.27,4232.61" /><path
         id="path134"
         style="fill:none;stroke:#29316c;stroke-width:30;stroke-linecap:round;stroke-linejoin:miter;stroke-miterlimit:10;stroke-dasharray:none;stroke-opacity:1"
         d="m 2224.98,4074.82 -293.9,-293.9" /><path
         id="path136"
         style="fill:none;stroke:#29316c;stroke-width:30;stroke-linecap:round;stroke-linejoin:miter;stroke-miterlimit:10;stroke-dasharray:none;stroke-opacity:1"
         d="M 3907.08,437.711 4189.2,719.82" /><path
         id="path138"
         style="fill:#c6ebdd;fill-opacity:1;fill-rule:nonzero;stroke:none"
         d="m 6944.07,4565.79 -45.94,44.58 c 0,0 492.68,557.29 504.24,568.85 11.56,11.56 354.95,-37.41 354.95,-37.41 l -547.4,-571.19 c -71.94,-75.07 -191.23,-77.24 -265.85,-4.83" /></g></g></svg>