<svg id="SvgjsSvg1001" width="288" height="288" xmlns="http://www.w3.org/2000/svg" version="1.1" xmlns:xlink="http://www.w3.org/1999/xlink" xmlns:svgjs="http://svgjs.com/svgjs"><defs id="SvgjsDefs1002"></defs><g id="SvgjsG1008" transform="matrix(1,0,0,1,0,0)"><svg xmlns="http://www.w3.org/2000/svg" xmlns:svgjs="http://svgjs.com/svgjs" xmlns:xlink="http://www.w3.org/1999/xlink" width="288" height="288"><svg xmlns="http://www.w3.org/2000/svg" width="288" height="288" version="1.0" viewBox="0 0 354 371"><g fill="#000000" class="color000 svgShape colorffbf66" transform="matrix(.1 0 0 -.1 0 371)"><path d="M1515 3643c-98-10-169-29-240-62-233-110-378-328-379-571-1-119 18-203 85-373 60-150 269-569 378-757 40-69 85-145 99-170 14-25 35-61 48-81l23-36-112-7c-108-7-126-10-115-21 20-20 498-15 498 5 0 4-51 11-114 15l-114 7 69 118c38 65 69 121 69 124 0 3 11 22 25 42 14 20 53 88 87 151 34 62 64 113 69 113 4 0 10-12 13-26 13-50 87-152 139-193 91-70 242-124 298-106 40 13 45 82 8 112-8 5-34 13-59 17-111 16-231 115-266 218-58 175 36 348 198 365 132 13 227-63 228-182 1-154-210-202-235-54-13 77-74 104-115 52-17-22-20-36-16-66 39-239 353-275 468-53 30 57 30 181 1 246-30 66-86 125-146 155-65 31-166 43-232 26-26-7-49-10-51-8-2 2 7 30 19 63 52 131 70 223 64 319-11 167-71 298-193 421-67 68-96 90-175 127-103 51-236 79-324 70zm179-153c149-38 277-141 340-273 42-89 56-154 56-262 0-257-174-466-432-519-96-20-128-20-220-1-221 46-391 224-423 446-4 24-9 89-11 144-4 98-4 99 10 52 14-52 59-107 87-107 10 0 21-4 24-10 11-17 68-11 109 13 99 56 106 193 14 259-45 32-124 32-167 0-17-12-31-20-31-17 0 17 91 101 135 123 45 24 61 27 155 27 98 0 109-2 158-30 71-39 136-112 162-183 32-84 25-206-15-280-39-72-110-134-185-162-50-19-74-22-143-18-100 5-166 37-233 111-46 52-56 52-26 2 32-51 104-115 167-145 88-44 162-56 243-41 181 34 305 155 343 338 24 118-22 256-120 353-133 132-323 157-491 63l-45-24 35 30c128 112 329 156 504 111zm-437-1104c158-60 366-63 550-10 47 14 87 23 88 22 6-7-121-218-135-223-8-4-62-11-120-17-80-8-129-8-207 2l-102 12-54 92c-91 152-90 148-20 122zm241-272c61-3 134-1 171 5 36 6 66 9 67 8 2-1-21-45-50-97l-53-95-81-3-81-3-39 68c-22 37-47 83-57 102-15 31-16 33-1 28 9-4 65-9 124-13zm102-230c0-9-45-84-50-84-3 0-17 20-32 45l-28 45 55 0c30 0 55-2 55-6zM3350 1145c0-69-2-125-3-125-2 0-18 7-36 16-81 40-172 25-237-40-163-163 17-440 225-346 53 24 51 24 51 0 0-16 7-20 35-20l35 0 0 320 0 320-35 0-35 0 0-125zm-64-184c71-43 82-148 23-209-95-97-247-7-218 128 5 21 22 48 43 68 29 26 44 32 78 32 24 0 56-8 74-19zM143 1198c8-18 62-151 122-296 59-145 111-259 115-255 4 4 40 88 81 185 40 98 76 175 80 170 4-4 38-83 75-177 37-93 70-173 74-178 3-4 47 88 98 205 50 117 106 250 126 296l35 82-47 0-47 0-76-183c-42-100-81-181-85-180-5 1-40 78-77 170-38 92-72 171-76 175-4 5-41-72-82-170-41-97-79-176-84-175-4 1-42 83-84 182l-76 181-43 0-42 0 13-32zM1030 1190l0-40 100 0 100 0 0-82c1-46 0-163 0-260l-1-178 41 0 41 0-1 193c-1 105-1 222-1 260l1 67 100 0 100 0 0 40 0 40-240 0-240 0 0-40zM1600 1185c0-36 3-45 18-45 16-1 16-1 0-11-16-9-18-32-18-254l0-245 40 0 40 0 0 125 0 124 108 3 107 3 3 38 3 37-110 0-110 0-3 98-3 97 138-3 137-3 0 42 0 42-47-6c-27-2-57-8-68-12-16-5-17-5-5 4 11 8-17 11-107 11l-123 0 0-45zM2185 1049c-45-13-105-67-126-113-77-171 92-360 259-290 147 61 178 261 56 362-58 48-120 62-189 41zm152-112c44-49 51-94 23-152-27-56-61-80-110-79-53 2-97 32-121 82-66 134 107 258 208 149zM2669 1047c-59-22-96-54-120-105-49-99-20-214 69-277 38-26 52-30 112-30 60 0 73 4 112 30 101 71 123 202 52 306-47 68-151 103-225 76zm116-81c95-40 99-192 6-241-119-61-242 77-171 193 34 55 100 75 165 48z" class="color000 svgShape" fill="#000000"></path></g></svg></svg></g></svg>